<?xml version="1.0" encoding="UTF-8" standalone="no"?>
<!-- Created with Inkscape (http://www.inkscape.org/) -->

<svg
   width="512"
   height="512"
   viewBox="0 0 135.46666 135.46667"
   version="1.1"
   id="svg5"
   inkscape:version="1.1.2 (b8e25be833, 2022-02-05)"
   sodipodi:docname="space_objects.svg"
   inkscape:export-filename="C:\Work\StribrnikyGameJam23\Images_vector\dark_matter_4.png"
   inkscape:export-xdpi="96"
   inkscape:export-ydpi="96"
   xmlns:inkscape="http://www.inkscape.org/namespaces/inkscape"
   xmlns:sodipodi="http://sodipodi.sourceforge.net/DTD/sodipodi-0.dtd"
   xmlns="http://www.w3.org/2000/svg"
   xmlns:svg="http://www.w3.org/2000/svg">
  <sodipodi:namedview
     id="namedview7"
     pagecolor="#ffffff"
     bordercolor="#797979"
     borderopacity="1"
     inkscape:pageshadow="0"
     inkscape:pageopacity="0"
     inkscape:pagecheckerboard="0"
     inkscape:document-units="mm"
     showgrid="true"
     units="px"
     inkscape:zoom="0.45291837"
     inkscape:cx="713.15279"
     inkscape:cy="55.197585"
     inkscape:window-width="2560"
     inkscape:window-height="1334"
     inkscape:window-x="-11"
     inkscape:window-y="-11"
     inkscape:window-maximized="1"
     inkscape:current-layer="layer1"
     objecttolerance="1"
     gridtolerance="1"
     guidetolerance="1">
    <inkscape:grid
       type="xygrid"
       id="grid824"
       originx="0"
       originy="0"
       spacingx="67.733332"
       spacingy="67.733332" />
  </sodipodi:namedview>
  <defs
     id="defs2">
    <filter
       inkscape:collect="always"
       style="color-interpolation-filters:sRGB"
       id="filter1413"
       x="-0.25119593"
       y="-0.2235414"
       width="1.5023919"
       height="1.4470828">
      <feGaussianBlur
         inkscape:collect="always"
         stdDeviation="46.102075"
         id="feGaussianBlur1415" />
    </filter>
    <filter
       inkscape:collect="always"
       style="color-interpolation-filters:sRGB"
       id="filter1797"
       x="-0.22557758"
       y="-0.23947788"
       width="1.4511552"
       height="1.4789558">
      <feGaussianBlur
         inkscape:collect="always"
         stdDeviation="44.842214"
         id="feGaussianBlur1799" />
    </filter>
  </defs>
  <g
     inkscape:label="Vrstva 1"
     inkscape:groupmode="layer"
     id="layer1">
    <path
       sodipodi:type="star"
       style="mix-blend-mode:normal;fill:#ffffff;fill-opacity:1;stroke-width:3.83622;filter:url(#filter1413)"
       id="path1331"
       inkscape:flatsided="false"
       sodipodi:sides="6"
       sodipodi:cx="11.039517"
       sodipodi:cy="231.82986"
       sodipodi:r1="226.63298"
       sodipodi:r2="154.11043"
       sodipodi:arg1="0.53123012"
       sodipodi:arg2="1.0548289"
       inkscape:rounded="0.25"
       inkscape:randomized="0.2"
       d="M 240.64359,312.29146 C 225.1911,335.96587 160.18734,335.6679 130.07253,343.10753 99.957726,350.54716 25.880076,504.97163 -1.9703246,500.5275 -29.820725,496.08336 -23.541416,359.50116 -46.910348,339.52939 -70.27928,319.55762 -158.46347,350.6984 -170.37778,322.37904 c -11.91432,-28.31935 39.95402,-59.45447 46.82702,-86.93279 6.873,-27.47833 -85.04368,-86.56247 -63.66238,-106.45805 21.38129,-19.89559 81.4054,-33.898558 110.56959,-40.853637 C -47.479356,81.179485 -57.185031,15.115254 -25.868403,6.0861948 5.4482259,-2.9428647 23.319839,133.54905 50.497783,140.66897 77.675727,147.78889 226.38969,67.139178 246.20302,89.707055 266.01635,112.27493 202.78056,206.67966 194.49041,235.48843 c -8.29015,28.80878 61.60566,53.12861 46.15318,76.80303 z"
       transform="matrix(0.17251727,0,0,0.17251727,-169.42653,-27.282834)"
       inkscape:transform-center-x="0.1491836"
       inkscape:transform-center-y="-9.6450439"
       inkscape:export-filename="C:\Work\StribrnikyGameJam23\Images_vector\dark_matter1.png"
       inkscape:export-xdpi="96"
       inkscape:export-ydpi="96" />
    <path
       sodipodi:type="star"
       style="fill:#ffffff;fill-opacity:1;stroke-width:3.83622;filter:url(#filter1797)"
       id="path1709"
       inkscape:flatsided="false"
       sodipodi:sides="6"
       sodipodi:cx="301.31613"
       sodipodi:cy="-173.29581"
       sodipodi:r1="243.12015"
       sodipodi:r2="165.3217"
       sodipodi:arg1="0.73997488"
       sodipodi:arg2="1.2635737"
       inkscape:rounded="0.25"
       inkscape:randomized="0.2"
       d="M 463.97996,34.254218 C 449.94374,61.973644 341.44163,6.6065633 312.69806,21.922887 283.95449,37.239208 288.72917,84.99897 259.85635,77.945085 230.98352,70.8912 210.97113,18.979795 193.63567,-9.2692883 176.30021,-37.518369 49.663808,-102.19717 36.301395,-131.68827 c -13.362414,-29.49111 137.037845,-7.52249 138.210295,-41.4369 1.17245,-33.91441 -107.275877,-133.48516 -92.309033,-161.8821 14.966846,-28.39694 134.940823,13.81171 164.291513,0.97647 29.35069,-12.83523 106.09611,-40.5843 137.18025,-36.26625 31.08414,4.31805 -23.39423,66.74247 -6.0313,97.15197 17.36293,30.4095 123.82716,-18.93514 132.33819,15.23333 8.51103,34.16847 -5.52226,76.37176 -21.30725,106.10312 -15.78499,29.73136 -10.65788,158.3434248 -24.6941,186.062848 z"
       transform="matrix(0.19108183,0,0,0.19108183,-187.28119,21.547617)"
       inkscape:transform-center-x="5.2182493"
       inkscape:transform-center-y="5.2064152" />
    <path
       style="fill:#ffffff;stroke-width:0.698817"
       d="m 69.532078,124.53881 c -5.875299,-1.22254 -13.199773,-4.28738 -18.237732,-7.63139 -5.267358,-3.49627 -12.416582,-11.20378 -15.490087,-16.69973 -4.776968,-8.54202 -6.44134,-19.695976 -4.298467,-28.806612 0.54166,-2.302929 0.874377,-4.297604 0.73937,-4.432612 -0.135019,-0.135018 -1.201816,1.074729 -2.370682,2.688299 -8.212149,11.336545 -7.117672,28.528091 2.781608,43.692275 4.153029,6.3618 3.38449,6.23716 -1.524304,-0.24719 C 18.649228,96.612763 16.56275,77.686756 25.280354,60.024736 c 5.342809,-10.824633 13.31964,-17.992522 24.03675,-21.599159 5.744916,-1.933341 4.490107,-2.603559 -4.1051,-2.192617 -8.752864,0.41848 -14.9699,3.516506 -22.781107,11.352101 -4.66682,4.681395 -6.242038,6.883044 -9.259874,12.94234 -2.000041,4.015738 -3.6362785,7.003184 -3.6360857,6.638767 6.92e-4,-1.298367 2.9596827,-8.438011 5.7774107,-13.940108 4.094218,-7.99466 12.63611,-16.403138 20.777314,-20.452796 19.035192,-9.468635 38.628916,-7.023794 52.236621,6.517919 2.786547,2.773021 5.066431,4.796017 5.066431,4.495546 0,-2.321095 -3.280213,-10.227848 -5.569368,-13.42461 -4.40349,-6.149429 -10.639049,-10.20957 -20.295333,-13.214874 -4.254024,-1.323963 -6.735749,-1.620918 -13.269077,-1.587748 -6.085158,0.0309 -7.442556,-0.113307 -5.590554,-0.593892 1.345225,-0.349085 6.376708,-0.649833 11.181079,-0.668327 7.567252,-0.02913 9.48273,0.209474 14.325769,1.784546 8.015675,2.606876 13.87518,6.274556 20.265724,12.685039 6.215166,6.234584 10.613166,13.632512 12.523496,21.065977 1.69782,6.606552 1.42879,16.160395 -0.6365,22.605229 -0.51028,1.592362 -0.45463,1.655674 0.64989,0.739008 2.32172,-1.926851 5.50553,-7.267148 6.78667,-11.383442 2.43649,-7.828451 1.12896,-19.5489 -3.19297,-28.621235 -0.97106,-2.038382 -3.54153,-6.027813 -5.71215,-8.865403 -4.921462,-6.433646 -3.7779,-5.862326 2.13367,1.065991 8.55213,10.02306 12.41583,20.208548 12.42534,32.755603 0.0159,20.313121 -11.83076,37.844592 -29.460488,43.599529 -2.465641,0.80488 -5.138642,1.4945 -5.939956,1.53251 -0.837604,0.0397 -0.120175,0.50389 1.68778,1.09197 2.073,0.67429 5.070922,0.9336 8.797022,0.76092 7.679402,-0.3559 14.235892,-3.43663 21.105262,-9.916855 5.59319,-5.276312 8.30375,-9.177086 11.80448,-16.987772 2.97843,-6.645326 2.39887,-3.371229 -0.79878,4.512642 -7.74028,19.083805 -23.60265,30.507575 -43.703272,31.474225 -12.100822,0.58194 -22.587605,-3.12998 -30.728711,-10.87679 -2.316695,-2.20449 -4.212174,-3.730284 -4.212174,-3.390646 0,0.339636 0.922241,2.549296 2.049421,4.910346 2.246241,4.70509 7.187136,10.11492 11.633361,12.73747 7.427585,4.38107 18.725561,6.51438 27.615711,5.21447 3.112339,-0.45508 5.8075,-0.67875 5.989214,-0.49702 0.628712,0.62871 -9.2259,2.48033 -15.142085,2.84512 -3.760119,0.23184 -7.6439,0.0116 -10.583107,-0.5999 z m 5.198174,-44.875778 c 4.393268,-2.245377 6.257692,-8.18959 4.09917,-13.069257 -1.800295,-4.069914 -4.860074,-6.023993 -9.438094,-6.027524 -6.155214,-0.0048 -10.244242,4.059261 -10.236081,10.173486 0.01056,8.30733 7.917397,12.837053 15.575005,8.923295 z"
       id="path1376"
       inkscape:export-filename="C:\Work\StribrnikyGameJam23\Images_vector\vortex.png"
       inkscape:export-xdpi="96"
       inkscape:export-ydpi="96" />
  </g>
</svg>
